<svg width="80" height="80" viewBox="0 0 80 80" fill="none" xmlns="http://www.w3.org/2000/svg">
<g clip-path="url(#clip0_37_3)">
<path d="M60 0H20C8.9543 0 0 8.9543 0 20V60C0 71.0457 8.9543 80 20 80H60C71.0457 80 80 71.0457 80 60V20C80 8.9543 71.0457 0 60 0Z" fill="#A9C2CB"/>
<g clip-path="url(#clip1_37_3)">
<path d="M43.2634 17.5C42.2145 17.5 41.3459 18.2299 41.1001 19.2063C40.8827 19.2 40.6683 19.1885 40.4494 19.1885C35.1893 19.1885 30.3557 21.0406 26.5727 24.1311C26.1998 23.857 25.7485 23.6914 25.2536 23.6914C24.017 23.6914 23.0024 24.7061 23.0024 25.9429C23.0024 26.4377 23.168 26.8889 23.4421 27.262C20.3519 31.0451 18.5 35.8791 18.5 41.1396C18.5 46.9797 20.7904 52.2823 24.515 56.2136C24.2398 56.658 24.1656 57.2144 24.128 57.4624C24.128 58.6992 25.1426 59.7139 26.3793 59.7139C26.9578 59.7139 27.474 59.4786 27.8742 59.1157C31.437 61.6087 35.7739 63.0732 40.4494 63.0732C52.565 63.0732 62.3987 53.2563 62.3987 41.1396C62.3987 35.7034 60.4181 30.7292 57.14 26.8926C57.6139 26.1222 57.8963 25.2221 57.8963 24.2542C57.8963 21.4631 55.6218 19.1885 52.8311 19.1885C51.3105 19.1885 49.9442 19.8638 49.0145 20.9299C47.8934 20.4539 46.7217 20.0547 45.5146 19.769C45.4064 18.2476 44.3009 17.5664 43.2634 17.5V17.5ZM43.2634 18.6257C43.8917 18.6257 44.389 19.1231 44.389 19.7515C44.389 20.3799 43.8917 20.8772 43.2634 20.8772C42.6351 20.8772 42.1378 20.3799 42.1378 19.7515C42.1378 19.1231 42.6351 18.6257 43.2634 18.6257ZM40.4494 20.2969C40.6675 20.2969 40.8837 20.3076 41.1001 20.3145C41.3517 21.2825 42.2204 22.0029 43.2634 22.0029C44.0965 22.0029 44.8264 21.5386 45.2156 20.8599C46.3068 21.1154 47.364 21.4426 48.3814 21.8623C47.9955 22.5767 47.7658 23.3879 47.7658 24.2544C47.7658 27.0454 50.0403 29.3201 52.8311 29.3201C54.2442 29.3201 55.534 28.7456 56.4541 27.8074C59.4603 31.42 61.2731 36.0696 61.2731 41.1399C61.2731 52.6481 51.9567 61.9653 40.4494 61.9653C35.9983 61.9653 31.8895 60.5583 28.5074 58.1836C28.5841 57.9579 28.6305 57.7132 28.6305 57.4626C28.6305 56.2259 27.6159 55.2112 26.3793 55.2112C26.0099 55.2112 25.6678 55.3151 25.3592 55.4751C21.8138 51.7425 19.6256 46.7006 19.6256 41.1399C19.6256 36.1504 21.3833 31.5706 24.3039 27.9832C24.5924 28.1184 24.9159 28.1943 25.2536 28.1943C26.4903 28.1943 27.5049 27.1796 27.5049 25.9429C27.5049 25.6051 27.429 25.2813 27.2938 24.9929C30.879 22.0632 35.4553 20.2969 40.4494 20.2969V20.2969ZM52.8311 20.3145C55.0135 20.3145 56.7707 22.0718 56.7707 24.2544C56.7707 26.437 55.0135 28.1943 52.8311 28.1943C50.6486 28.1943 48.8914 26.437 48.8914 24.2544C48.8914 22.0718 50.6486 20.3145 52.8311 20.3145ZM25.2536 24.8171C25.882 24.8171 26.3793 25.3145 26.3793 25.9429C26.3793 26.5712 25.882 27.0686 25.2536 27.0686C24.6253 27.0686 24.128 26.5712 24.128 25.9429C24.128 25.3145 24.6253 24.8171 25.2536 24.8171ZM62.9615 24.8171C61.7249 24.8171 60.7103 25.8318 60.7103 27.0686C60.7103 28.3054 61.7249 29.3201 62.9615 29.3201C64.1982 29.3201 65.2128 28.3054 65.2128 27.0686C65.2128 25.8318 64.1982 24.8171 62.9615 24.8171ZM62.9615 25.9429C63.5899 25.9429 64.0871 26.4402 64.0871 27.0686C64.0871 27.6969 63.5899 28.1943 62.9615 28.1943C62.3332 28.1943 61.8359 27.6969 61.8359 27.0686C61.8359 26.4402 62.3332 25.9429 62.9615 25.9429ZM40.4494 27.6313C32.9962 27.6313 26.9421 33.6861 26.9421 41.1399C26.9421 48.5937 32.9962 54.6306 40.4494 54.6306C47.9026 54.6306 53.9567 48.5937 53.9567 41.1399C53.9567 33.6861 47.9026 27.6313 40.4494 27.6313ZM40.4494 28.7395C44.2996 28.7395 47.7306 30.5066 49.9995 33.2598C48.0988 33.2598 46.1748 33.2598 44.2835 33.2598C43.9887 33.2871 43.7456 33.5807 43.7733 33.8755C43.8009 34.1702 44.0943 34.4132 44.389 34.3855C46.5082 34.2906 48.7187 34.5339 50.8085 34.3503C52.0863 36.3003 52.8311 38.6318 52.8311 41.1396C52.8311 42.1216 52.7121 43.0736 52.4969 43.989C48.5049 43.9173 44.3534 43.9536 40.9066 43.9536C40.612 43.9815 40.3691 44.2746 40.3967 44.5693C40.4244 44.864 40.7175 45.1069 41.0122 45.0793H52.1803C51.9169 45.865 51.5855 46.6247 51.1778 47.3308C48.392 47.3308 45.5516 47.3308 43.1578 47.3308C42.8632 47.3587 42.6203 47.6518 42.6479 47.9465C42.6756 48.2412 42.9687 48.4841 43.2634 48.4565H50.4391C48.1882 51.5263 44.5542 53.5222 40.4493 53.5222C33.7946 53.5222 28.381 48.2836 28.0852 41.7024H37.0725C37.3696 41.7081 37.6426 41.4365 37.6426 41.1394C37.6426 40.8422 37.3696 40.5728 37.0725 40.5767H28.0852C28.1199 39.8069 28.2158 39.0521 28.3842 38.3252H39.3237C39.6208 38.3309 39.8938 38.0596 39.8938 37.7625C39.8938 37.4653 39.6208 37.1956 39.3237 37.1995H28.7184C30.3606 32.2872 34.9818 28.7393 40.4493 28.7393L40.4494 28.7395ZM62.3987 55.2109C61.1621 55.2109 60.1475 56.2257 60.1475 57.4624C60.1475 58.6992 61.1621 59.7139 62.3987 59.7139C63.6354 59.7139 64.6499 58.6992 64.6499 57.4624C64.6499 56.2257 63.6354 55.2109 62.3987 55.2109ZM26.3793 56.3367C27.0076 56.3367 27.5049 56.834 27.5049 57.4624C27.5049 58.0908 27.0076 58.5881 26.3793 58.5881C25.7509 58.5881 25.2537 58.0908 25.2537 57.4624C25.2537 56.834 25.7509 56.3367 26.3793 56.3367ZM62.3987 56.3367C63.027 56.3367 63.5243 56.834 63.5243 57.4624C63.5243 58.0908 63.027 58.5881 62.3987 58.5881C61.7704 58.5881 61.2731 58.0908 61.2731 57.4624C61.2731 56.834 61.7704 56.3367 62.3987 56.3367Z" fill="white" stroke="white"/>
</g>
</g>
<defs>
<clipPath id="clip0_37_3">
<rect width="80" height="80" fill="white"/>
</clipPath>
<clipPath id="clip1_37_3">
<rect width="47.7127" height="46.5733" fill="white" transform="translate(18 17)"/>
</clipPath>
</defs>
</svg>
