<svg width="80" height="80" viewBox="0 0 80 80" fill="none" xmlns="http://www.w3.org/2000/svg">
<g clip-path="url(#clip0_37_345)">
<path d="M60 0H20C8.9543 0 0 8.9543 0 20V60C0 71.0457 8.9543 80 20 80H60C71.0457 80 80 71.0457 80 60V20C80 8.9543 71.0457 0 60 0Z" fill="#A9C2CB"/>
<g clip-path="url(#clip1_37_345)">
<path d="M46.8649 41.9951V34.4063C46.8649 33.7367 46.4185 33.2901 45.7489 33.2901H41.2849V26.0362C41.3965 26.0362 41.5081 26.0362 41.5081 26.0362C44.6329 26.0362 47.5346 24.8084 49.4318 22.688C51.4406 20.456 52.3334 17.4428 51.9986 14.0948C51.887 13.5368 51.5521 13.202 50.9941 13.0904C47.3113 12.644 43.8517 13.8717 41.6197 16.3269C40.3921 17.6661 39.6109 19.3401 39.1645 21.2373C39.0529 21.0141 38.8297 20.7909 38.7181 20.5677C36.4861 18.1124 33.0265 16.8849 29.3436 17.3313C28.7856 17.4429 28.4508 17.7777 28.3392 18.3357C28.0044 21.6837 28.8972 24.697 30.906 26.929C32.8032 29.0494 35.7049 30.2769 38.8297 30.2769C38.9413 30.2769 39.0529 30.2769 39.0529 30.2769V33.4019H34.5889C33.9193 33.4019 33.4728 33.8482 33.4728 34.5179V41.9951C29.4552 44.3388 27 48.691 27 53.3782C27 60.6323 32.9148 66.5471 40.1689 66.5471C47.4229 66.5471 53.3378 60.6322 53.3378 53.3782C53.3378 48.691 50.8826 44.3388 46.8649 41.9951ZM43.2937 17.7776C44.8561 15.992 47.1997 15.0994 49.7665 15.211C49.7665 17.5546 49.097 19.5634 47.7578 21.1258C46.1953 22.7998 43.9633 23.6924 41.5081 23.6924C41.3965 23.6924 41.2849 23.6924 41.2849 23.6924C41.2849 21.4604 41.9545 19.34 43.2937 17.7776ZM38.8297 27.9334C36.2629 27.9334 34.0308 27.0405 32.58 25.2549C31.2408 23.6925 30.4596 21.5721 30.5712 19.3401C33.138 19.2285 35.4817 20.233 37.0441 21.907C38.3833 23.4694 39.1645 25.5898 39.0529 27.8218C38.9413 27.9334 38.8297 27.9334 38.8297 27.9334ZM40.1689 64.3152C34.1424 64.3152 29.232 59.4046 29.232 53.3782C29.232 49.249 31.464 45.5662 35.1469 43.669C35.4817 43.4458 35.7048 43.111 35.7048 42.6646V35.5222H39.0529V48.8028C39.0529 52.8204 40.6153 56.6148 43.4053 59.4048C43.6285 59.628 43.9633 59.7395 44.1865 59.7395C44.5213 59.7395 44.7445 59.628 44.9677 59.4048C45.4141 58.9584 45.4141 58.2887 44.9677 57.8423C42.5125 55.3871 41.2849 52.2624 41.2849 48.8028V35.5222H44.6329V42.6646C44.6329 43.111 44.8561 43.4458 45.1909 43.669C48.8737 45.5662 51.1058 49.249 51.1058 53.3782C51.1058 59.4046 46.1953 64.3152 40.1689 64.3152Z" fill="white"/>
</g>
</g>
<defs>
<clipPath id="clip0_37_345">
<rect width="80" height="80" fill="white"/>
</clipPath>
<clipPath id="clip1_37_345">
<rect width="26.3378" height="53.5471" fill="white" transform="translate(27 13)"/>
</clipPath>
</defs>
</svg>
