<?xml version="1.0" encoding="UTF-8"?>
<svg xmlns="http://www.w3.org/2000/svg" width="289.33521303625616" height="57.11822768526625" viewBox="988.528402236717 44.86396094639673 289.33521303625616 57.11822768526625" preserveAspectRatio="none">
  <g>
    <defs>
      <path id="mi-525acb06-Union_9-738e0" d="M1031.6829645327266 48.108728423543965 C1045.228090565975 54.12500125415896 1016.2864174998384 72.28762949710526 1007.0583410208529 72.28762949710526 C1003.3189290726264 72.28762949710526 1002.8165262060768 69.3052783373309 1009.689881029619 61.323879498054524 C1013.7412448173089 56.50083592022597 1023.5802369573465 49.02510939669915 1031.6829645327266 48.108728423543965 Z M1268.108821675293 70.05360064371068 C1270.4721621075748 70.05360064371068 1272.0637628971015 71.83813634392598 1272.401331656613 74.44257808037491 L1263.7198292754747 74.44257808037491 C1264.1538804534848 71.74165392542733 1265.7454812430112 70.05360064371068 1268.108821675293 70.05360064371068 Z M1223.5438200107028 77.04701981682382 C1224.7978520407178 77.04701981682382 1226.1482467839974 77.384633465798 1227.2575551862644 77.81869960696235 L1227.2575551862644 78.9280080092293 C1227.2575551862644 81.07215319514222 1225.4556323008296 82.40546001628712 1222.8966935164053 82.40546001628712 C1222.8078722328742 82.40546001628712 1222.7180933074724 82.4038439956299 1222.627476445433 82.40061195431542 C1220.8429108189093 82.40061195431542 1219.4925160756297 81.4842234995831 1219.4925160756297 79.9408489561518 L1219.4925160756297 79.84438150080737 C1219.4925160756297 78.15632821909077 1221.0841168651561 77.04701981682382 1223.5438200107028 77.04701981682382 Z M1084.2542113541983 58.18889668351969 C1083.771859114322 58.18889668351969 1083.4342903548106 58.62297030626118 1083.4342903548106 59.105285138251986 L1083.4342903548106 85.19797363829895 C1083.4342903548106 85.77673348090289 1083.9165827420702 86.11436209303127 1084.3506339200803 86.11436209303127 C1084.9294087258381 86.11436209303127 1085.2670373379667 85.63203977946333 1085.2670373379667 85.19797363829895 L1085.2670373379667 59.201737630442196 C1085.2670373379667 58.62297030626118 1084.9294087258381 58.18889668351969 1084.3506339200803 58.18889668351969 Z M1059.5071892406934 59.53933631626212 C1059.4749885327824 59.53933631626212 1059.4427279722545 59.54093737376512 1059.4106469695776 59.54418437823384 C1058.8841234984034 59.59710157318119 1058.494423109542 60.0739024828369 1058.5473328229123 60.60042595401109 L1058.4508504044134 60.60042595401109 L1058.4508504044134 85.34265237658428 C1058.4508504044134 85.9214271823424 1058.8849614350406 86.355508286661 1059.4637362407987 86.355508286661 C1059.9942698373075 86.355508286661 1060.476562224567 85.9214271823424 1060.5730446430657 85.34265237658428 L1060.5730446430657 74.15319067749584 L1074.993934167302 74.15319067749584 C1075.5727089730601 74.15319067749584 1075.9103375851887 73.67088332708215 1075.9103375851887 73.23680222276354 C1075.9103375851887 72.65804238015963 1075.4279853453122 72.32042873118547 1074.993934167302 72.32042873118547 L1060.4283210153176 72.32042873118547 L1060.4283210153176 61.468565717916945 L1076.537293747579 61.468565717916945 C1077.1160685533373 61.468565717916945 1077.4536971654657 60.986265849080354 1077.4536971654657 60.552192226338875 C1077.4536971654657 60.11811860359738 1077.1160685533373 59.53934379783924 1076.537293747579 59.53934379783924 L1059.5119175974312 59.53934379783924 C1059.5103614293907 59.53933631626212 1059.5088052613505 59.53933631626212 1059.5071892406934 59.53933631626212 Z M1117.9190339804998 60.552192226338875 C1117.4849828024896 60.552192226338875 1117.147354190361 61.03449209517545 1117.147354190361 61.468565717916945 L1117.147354190361 66.82215037383142 L1115.0252198043258 66.82215037383142 C1114.5429274170665 66.82215037383142 1114.1088762390564 67.1597715043827 1114.1088762390564 67.5938451271242 C1114.1088762390564 68.07614499596079 1114.5911686263157 68.51022610027938 1115.0252198043258 68.51022610027938 L1117.147354190361 68.51022610027938 L1117.147354190361 81.14660985060894 C1117.147354190361 84.71566628788526 1119.6071171885249 86.40371956960186 1122.549172573948 86.40371956960186 C1123.417334782585 86.40371956960186 1124.4301607663533 86.3072670774117 1125.34656418424 85.96966839159174 C1125.6841927963683 85.87318597309309 1125.9253389899982 85.53558728727313 1125.9253389899982 85.19797363829895 C1125.9253389899982 84.76389253398037 1125.5877103778696 84.42627888500618 1125.1536591998595 84.42627888500618 C1124.4784019756028 84.66744004179017 1123.6584809762148 84.76389253398037 1122.8868011860764 84.76389253398037 C1120.5235206064115 84.76389253398037 1118.931919816885 83.75105158705784 1118.931919816885 80.95368990307429 L1118.931919816885 68.51022610027938 L1125.1536591998595 68.51022610027938 C1125.635951587119 68.51022610027938 1126.0700027651292 68.1726049697281 1126.0700027651292 67.73853882856373 C1126.0700027651292 67.25623147815003 1125.635951587119 66.82215037383142 1125.1536591998595 66.82215037383142 L1118.931919816885 66.82215037383142 L1118.931919816885 61.468565717916945 C1118.931919816885 60.986265849080354 1118.4496274296255 60.552192226338875 1118.0155163989984 60.552192226338875 Z M1133.304627984489 60.552192226338875 C1132.8705169538619 60.552192226338875 1132.5328883417335 60.986265849080354 1132.5328883417335 61.468565717916945 L1132.5328883417335 66.82215037383142 L1130.410753955698 66.82215037383142 C1129.976702777688 66.82215037383142 1129.4944103904286 67.1597715043827 1129.4944103904286 67.5938451271242 C1129.4944103904286 68.0279262314428 1129.9284615684387 68.51022610027938 1130.410753955698 68.51022610027938 L1132.5328883417335 68.51022610027938 L1132.5328883417335 81.14660985060894 C1132.5328883417335 84.71566628788526 1134.992651339897 86.40373453275609 1137.9347067253202 86.40373453275609 C1138.8511101432068 86.40373453275609 1139.863936126975 86.3072670774117 1140.7320983356121 85.96966839159174 C1141.0697269477405 85.87318597309309 1141.3108731413704 85.53558728727313 1141.3108731413704 85.19797363829895 C1141.3108731413704 84.76389253398037 1140.973244529242 84.42627888500618 1140.5391334986148 84.42627888500618 C1139.863936126975 84.66744004179017 1139.0922563368363 84.76389253398037 1138.2723353374486 84.76389253398037 C1135.9090547577837 84.76389253398037 1134.3174539682573 83.75105158705784 1134.3174539682573 80.95368990307429 L1134.3174539682573 68.51022610027938 L1140.5391334986148 68.51022610027938 C1140.973244529242 68.51022610027938 1141.4555369165014 68.1726049697281 1141.4555369165014 67.73853882856373 C1141.4555369165014 67.30446520582225 1141.0214857384913 66.82215037383142 1140.5391334986148 66.82215037383142 L1134.3174539682573 66.82215037383142 L1134.3174539682573 61.468565717916945 C1134.3174539682573 61.03449209517545 1133.8834027902471 60.552192226338875 1133.4010505503707 60.552192226338875 Z M1222.815533367842 65.55477869181716 C1220.7760554457934 65.55477869181716 1218.8121713789335 65.96876427999996 1216.888029449718 66.58100418020169 C1215.9716260318314 66.91862531075299 1215.4410924353228 67.83499880233104 1215.5375748538213 68.79960602158134 C1215.5375748538213 70.04426363546888 1216.5509993637588 71.02457468508743 1217.81975513754 71.02457468508743 C1217.8784107021356 71.02457468508743 1217.9376647929012 71.02246488034046 1217.9972779993682 71.0182153445381 C1218.1902428363655 71.0182153445381 1218.5278115958768 71.0182153445381 1218.7690176421233 70.92174788919368 C1220.1194123854032 70.43944053877995 1221.4699268339168 70.34298804658975 1222.8203215771966 70.34298804658975 C1225.7624368152365 70.34298804658975 1227.209313977015 71.59697518714202 1227.209313977015 74.05673818530562 L1227.209313977015 74.39433687112557 C1225.6177131874888 73.86380327461677 1223.9296299794637 73.62265708098704 1222.2416066240553 73.62265708098704 C1217.3703218369774 73.62265708098704 1213.9942152735443 75.74479146702225 1213.9942152735443 80.23023635903087 C1213.9942152735443 84.28158518356668 1217.2738992710958 86.50020198810054 1220.9876344466575 86.50020198810054 C1221.137325841611 86.50935943849154 1221.286598268246 86.51387831107013 1221.4353918739455 86.51387831107013 C1223.6353346619958 86.51387831107013 1225.7185049944064 85.52512804246382 1227.209313977015 83.94397153459249 C1227.3057963955139 85.3908935858336 1228.5597685729117 86.40373453275609 1230.006705587307 86.40373453275609 C1231.550125020201 86.40373453275609 1232.8040373449821 85.19797363829895 1232.8040373449821 83.60637284877257 L1232.8040373449821 74.44257808037491 C1232.9005197634808 72.07928253755571 1232.1288998259593 69.71597951315941 1230.537239183816 67.93145129452124 C1228.8492158284075 66.48454420643438 1226.5823578146246 65.56815575170207 1223.4473375922041 65.56815575170207 C1223.235878296574 65.55916289600763 1223.0253167901978 65.55477869181716 1222.815533367842 65.55477869181716 Z M1178.2071984085908 66.58100418020169 C1174.734549574042 66.82215037383142 1171.6960716227372 69.18544591665061 1170.4420395927223 72.4168961865299 L1170.4420395927223 67.69030510089152 C1170.4420395927223 67.20799026890069 1169.9597472054627 66.77393160931344 1169.5256960274526 66.77393160931344 C1168.9469212216945 66.77393160931344 1168.6092926095662 67.11153777671049 1168.5128101910673 67.69030510089152 L1168.5128101910673 85.63203977946333 C1168.5128101910673 86.11436209303127 1168.9951624309438 86.54841327104143 1169.429213608954 86.54841327104143 C1170.0079884147121 86.54841327104143 1170.3456170268405 86.2108145852215 1170.4420395927223 85.63203977946333 L1170.4420395927223 78.44571562196981 C1170.4420395927223 72.17573502974591 1174.0111109931527 69.13721218897838 1178.2071984085908 68.70315352939113 L1178.3036808270895 68.70315352939113 C1178.8823957802306 68.70315352939113 1179.2200243923592 68.124378723633 1179.2200243923592 67.69030510089152 C1179.2200243923592 67.01507780294317 1178.785973214349 66.58100418020169 1178.2071984085908 66.58100418020169 Z M1196.245400542507 65.42347701341676 C1194.7984635281118 65.42347701341676 1193.5444913507135 66.33985050499484 1193.2068028859685 67.78676507465883 L1189.927178741034 78.10808700984143 L1186.7922183712303 67.69030510089152 C1186.454589759102 66.43631047876215 1185.3452813568351 65.47170325951187 1183.9948267609384 65.47170325951187 L1183.8983443424395 65.47170325951187 C1182.4514671806612 65.47170325951187 1181.293917569145 66.72569788164122 1181.293917569145 68.1726049697281 C1181.293917569145 68.60667859246959 1181.3903999876436 69.0889934244604 1181.5350637627748 69.52306704720188 L1186.5993133868499 83.99221274384183 C1186.9368821463613 85.43913479508296 1188.1909141763763 86.4519607788512 1189.7342737566535 86.54841327104143 L1189.9754199502831 86.54841327104143 C1191.4223569646786 86.54841327104143 1192.6762692894595 85.53558728727313 1193.1104401727034 84.08866523603203 L1196.390064317638 73.76735078242658 L1199.6697483151897 84.08866523603203 C1200.007317074701 85.53558728727313 1201.3578315232148 86.54841327104143 1202.8047086849933 86.54841327104143 L1203.04591473124 86.54841327104143 C1204.637515520766 86.54841327104143 1205.987910264046 85.53558728727313 1206.3255987287912 83.99221274384183 L1211.3897286476326 69.42659959185745 C1211.4862110661313 69.0889934244604 1211.6308748412625 68.65491232014179 1211.6308748412625 68.31729867116763 L1211.6308748412625 68.22083869740032 C1211.58269348463 66.72569788164122 1210.4733850823632 65.56815575170207 1208.9782068587183 65.56815575170207 C1207.6277522628216 65.56815575170207 1206.5184438605547 66.48454420643438 1206.1808751010433 67.78676507465883 L1202.9011911034918 78.20453950203162 L1199.6215071059403 67.78676507465883 C1199.283878493812 66.43631047876215 1198.0299063164139 65.42347701341676 1196.5829693020185 65.42347701341676 Z M1238.3988205655662 65.47170325951187 C1236.9519434037877 65.47170325951187 1235.6979113737727 66.58100418020169 1235.6014289552743 68.1726049697281 C1235.6014289552743 68.60667859246959 1235.6979113737727 69.0889934244604 1235.9390575674026 69.52306704720188 L1242.2572793688757 83.99221274384183 C1242.7395717561353 85.43913479508296 1243.9453625769008 86.4519607788512 1245.5369633664275 86.54841327104143 L1245.874532125939 86.54841327104143 C1247.3214092877172 86.4519607788512 1248.6719237362306 85.53558728727313 1249.2506985419889 84.08866523603203 L1255.3276544445987 69.61952702096922 C1255.5688604908453 69.18544591665061 1255.665342909344 68.70315352939113 1255.665342909344 68.26907242507252 L1255.665342909344 68.1726049697281 C1255.665342909344 66.72569788164122 1254.4595520885782 65.47170325951187 1252.867951299052 65.47170325951187 C1251.6139192690368 65.47170325951187 1250.50461086677 66.24339801280463 1250.1670421072583 67.49737767177976 L1245.5852045756767 79.36208911354791 L1241.1962121758584 67.5938451271242 C1240.8586434163467 66.38807675108994 1239.7493350140799 65.47170325951187 1238.3988205655662 65.47170325951187 Z M1268.3287201899109 65.41987837482357 C1268.2395397906782 65.41987837482357 1268.1502396862118 65.42107542716226 1268.0605804660438 65.42347701341676 C1262.079987276699 65.42347701341676 1257.8839597138776 70.24651310966821 1257.8839597138776 76.08240511599641 L1257.8839597138776 76.90232611538428 L1257.9803224271425 76.90232611538428 C1258.2127899913166 82.29452319079874 1262.7013771457146 86.56666831920649 1268.0780574301887 86.56666831920649 C1268.2800001597263 86.56666831920649 1268.4832596468364 86.56063816805033 1268.6875964810513 86.54841327104143 C1271.2920232543458 86.54841327104143 1273.7517263998925 85.77673348090289 1275.777498072663 84.08866523603203 C1276.3562728784211 83.65459909486765 1276.5491180101849 83.07583925226376 1276.5491180101849 82.40061195431542 L1276.5491180101849 82.30412953581677 C1276.5491180101849 81.05015735841874 1275.5362920264165 80.08554265759136 1274.2822599964013 80.08554265759136 C1273.8482088183912 80.08554265759136 1273.2694340126332 80.18199514978153 1272.9318652531217 80.51960879875571 C1271.7757521044118 81.3644284867884 1270.4557624905349 81.88130072348187 1269.0851375627312 81.88130072348187 C1268.9690234858779 81.88130072348187 1268.852550293323 81.87760482438614 1268.7358376903005 81.87007835780662 C1268.6688027593339 81.87269690979753 1268.6020072388346 81.87399870421584 1268.5354511288033 81.87399870421584 C1266.1591825312635 81.87399870421584 1264.0964219412274 80.21145760046764 1263.768070484724 77.81869960696235 L1275.3915683986684 77.81869960696235 C1276.8385652656807 77.72224711477216 1277.995995171963 76.4682599742199 1277.851391249449 75.0213379229788 L1277.851391249449 74.58727178181442 C1277.851391249449 69.60710760295528 1273.6068830669108 65.41987837482357 1268.3287201899109 65.41987837482357 Z M1093.2250412855988 66.67745667239188 C1092.7909901075886 66.67745667239188 1092.3086977203293 67.11153777671049 1092.3086977203293 67.5938451271242 L1092.3086977203293 78.68686181559957 C1092.3086977203293 83.26874423664418 1095.2507531057522 86.64489568954008 1100.073796683581 86.64489568954008 C1100.1608223886037 86.64773868884447 1100.247608683159 86.6491601884967 1100.3343351250974 86.6491601884967 C1103.1800277972557 86.6491601884967 1105.8531653747914 85.12097324661255 1107.1636982751925 82.59351693869584 L1107.1636982751925 85.3908935858336 C1107.1636982751925 85.96966839159174 1107.5977494532026 86.3072670774117 1108.0800418404622 86.3072670774117 C1108.6588166462202 86.3072670774117 1108.9964452583486 85.87318597309309 1108.9964452583486 85.3908935858336 L1108.89996283985 85.3908935858336 L1108.89996283985 67.5938451271242 L1108.9482040490993 67.5938451271242 C1108.9482040490993 67.01507780294317 1108.5141528710892 66.67745667239188 1108.0318006312127 66.67745667239188 C1107.4530856780716 66.67745667239188 1107.1154570659432 67.11153777671049 1107.1154570659432 67.5938451271242 L1107.1154570659432 78.44571562196981 C1107.1154570659432 82.0991941754325 1104.174718438093 84.9591616967297 1100.5434003160503 84.9591616967297 C1100.4834878464985 84.9591616967297 1100.4233958190962 84.95838361270955 1100.3631840864598 84.95681248151499 C1096.4082428646516 84.95681248151499 1094.1414447034854 82.40061195431542 1094.1414447034854 78.34923320347119 L1094.1414447034854 67.5938451271242 C1094.1414447034854 67.01507780294317 1093.7073935254753 66.67745667239188 1093.2250412855988 66.67745667239188 Z M1147.1728384439507 66.72149323530157 C1146.7387274133237 66.72149323530157 1146.256435026064 67.15556685804306 1146.256435026064 67.63786672687962 L1146.256435026064 78.73088341535501 C1146.256435026064 83.31278079955385 1149.1985502641041 86.68890232614129 1154.0215938419328 86.68890232614129 C1154.108559694339 86.69176028859991 1154.195465694128 86.6931817882521 1154.2821322834493 86.6931817882521 C1157.1277651029907 86.6931817882521 1159.8009026805264 85.16499484636796 1161.1114355809277 82.63755350160551 L1161.1114355809277 85.43493014874326 C1161.1114355809277 86.01367502819295 1161.5454867589378 86.35130364032136 1162.0277791461972 86.35130364032136 C1162.6065539519554 86.35130364032136 1162.9442424167007 85.91722253600275 1162.9442424167007 85.43493014874326 L1162.847759998202 85.43493014874326 L1162.847759998202 67.63786672687962 L1162.8960012074513 67.63786672687962 C1162.8960012074513 67.05911436585285 1162.4618901768245 66.72149323530157 1161.9795977895649 66.72149323530157 C1161.4008229838068 66.72149323530157 1161.0631943716783 67.15556685804306 1161.0631943716783 67.63786672687962 L1161.0631943716783 78.48972225857105 C1161.0631943716783 82.14323073834217 1158.1225155964448 85.00319825963936 1154.4911376217851 85.00319825963936 C1154.4312251522335 85.00319825963936 1154.3711929774481 85.00242017561922 1154.3109213921948 85.00084904442465 C1150.3560400230035 85.00084904442465 1148.0892418618373 82.44461859091663 1148.0892418618373 78.39326976638085 L1148.0892418618373 67.63786672687962 C1148.0892418618373 67.05911436585285 1147.65513083121 66.72149323530157 1147.1728384439507 66.72149323530157 Z M1026.0399999555102 72.46512243262501 C1029.9948813247015 75.84125892236668 1034.0462451123917 80.27846260512595 1035.637845901918 85.34266733973851 C1036.7748062132086 89.39310341186606 1034.7708807456195 90.69525694589646 1032.0940921584508 90.69525694589646 C1031.1372882241335 90.69525694589646 1030.0945359318978 90.52888163397233 1029.078537759432 90.2621783729115 C1022.4226873458302 88.47764267269622 1016.249189172105 83.55813163952322 1011.7155329971556 78.49394186806492 C1015.4292681727171 77.81871457011661 1019.0465807823971 76.4682599742199 1022.4226873458302 74.58727178181442 C1023.6767193758452 74.05672322215142 1024.9306915532434 73.23681718591777 1026.0399999555102 72.46512243262501 Z M1034.6417786508914 44.86396094639673 C1033.1178113185013 44.86396094639673 1031.3523386767797 45.006073503730946 1029.3196839530617 45.311359257983284 C1018.2266597830093 46.90296752908682 1002.0212046322491 56.83844208762301 998.6932794254483 68.22083869740032 C997.0052560700401 65.18232333820991 995.1242678776347 62.24026047120971 993.0503148482318 59.394665059553944 C992.0505965875723 58.109307666150826 991.003894022619 57.57055929796773 990.1696083951667 57.57055929796773 C988.4681182009482 57.57055929796773 987.6500526326854 59.81123927341916 989.9153544784283 62.529640392511666 C999.5132004248361 74.10496443140073 1006.1690508384378 87.99533532228253 1006.1690508384378 101.98218863166298 C1006.9889718378256 95.03699570464497 1005.7349398078107 86.54842823419565 1002.7928844223876 78.25278071128096 C1004.2880626460324 78.68686181559957 1005.8796634355587 78.9280080092293 1007.3265405973372 78.9280080092293 C1012.5354539965434 86.78957442782539 1020.3970353782938 93.49362116121364 1029.3196839530617 96.62859649417138 C1031.5418919146116 97.45700160200974 1033.9612543963444 97.92690449756375 1036.2162017393575 97.92690449756375 C1042.2322276779278 97.92690449756375 1047.0776561344899 94.58213077909579 1043.885297105046 85.77673348090289 C1041.5219566727642 79.16915420285903 1035.9754745140465 73.33326967810797 1030.5736561304598 69.18545339822772 C1037.8053485715895 63.595323718610345 1052.1381350436982 44.86396094639673 1034.6417786508914 44.86396094639673 Z "></path>
    </defs>
    <g style="mix-blend-mode:normal">
      <use xmlns:xlink="http://www.w3.org/1999/xlink" xlink:href="#mi-525acb06-Union_9-738e0" fill="#A9C2CB" fill-opacity="1.0" stroke-width="0.0" stroke="#A9C2CB" stroke-linecap="butt"></use>
    </g>
  </g>
</svg>
