<svg width="303" height="26" viewBox="0 0 303 26" fill="none" xmlns="http://www.w3.org/2000/svg">
<path d="M224.062 8C226.271 8 228.062 6.20914 228.062 4C228.062 1.79086 226.271 0 224.062 0C221.853 0 220.062 1.79086 220.062 4C220.062 6.20914 221.853 8 224.062 8Z" fill="#FD9727"/>
<path d="M167.246 7.73199C168.357 7.73199 169.178 7.98133 169.711 8.48C170.244 8.97867 170.51 9.65867 170.51 10.52C170.51 11.3813 170.244 12.0613 169.711 12.56C169.178 13.0587 168.357 13.308 167.246 13.308H164.322V7.73199H167.246ZM242.318 7.73199C243.429 7.73199 244.25 7.98133 244.783 8.48C245.316 8.97867 245.582 9.65867 245.582 10.52C245.582 11.3813 245.316 12.0613 244.783 12.56C244.25 13.0587 243.429 13.308 242.318 13.308H239.394V7.73199H242.318ZM290.53 7.73199C291.641 7.73199 292.462 7.98133 292.995 8.48C293.528 8.97867 293.794 9.65867 293.794 10.52C293.794 11.3813 293.528 12.0613 292.995 12.56C292.462 13.0587 291.641 13.308 290.53 13.308H287.606V7.73199H290.53ZM107.508 1.544V25.344H127.296V19.292H115.396V16.164H125.46V10.384H115.396V7.596H126.854V1.544H107.508ZM128.486 1.544L136.78 13.326L128.18 25.344H137.326L141.335 18.9811L145.452 25.344H154.632L145.852 13.0459L154.122 1.544H145.486L141.545 7.52486L137.496 1.544H128.486ZM156.298 1.544V25.344H164.322V19.496H167.756C169.977 19.496 171.898 19.1277 173.519 18.391C175.14 17.6543 176.392 16.6173 177.276 15.28C178.16 13.9427 178.602 12.356 178.602 10.52C178.602 8.684 178.16 7.09167 177.276 5.743C176.392 4.39433 175.14 3.35733 173.519 2.632C171.898 1.90666 169.977 1.544 167.756 1.544H156.298ZM181.56 1.544V25.344H200.328V19.122H189.584V1.544H181.56ZM231.37 1.544V25.344H239.394V19.36H241.58L245.616 25.344H254.184L249.189 18.024C250.523 17.3414 251.576 16.421 252.348 15.263C253.232 13.937 253.674 12.356 253.674 10.52C253.674 8.684 253.232 7.09167 252.348 5.743C251.464 4.39433 250.212 3.35733 248.591 2.632C246.97 1.90666 245.049 1.544 242.828 1.544H231.37ZM256.7 1.544V25.344H276.488V19.292H264.588V16.164H274.652V10.384H264.588V7.596H276.046V1.544H256.7ZM279.582 1.544V25.344H287.606V19.36H289.792L293.828 25.344H302.396L297.401 18.024C298.735 17.3414 299.788 16.421 300.56 15.263C301.444 13.937 301.886 12.356 301.886 10.52C301.886 8.684 301.444 7.09167 300.56 5.743C299.676 4.39433 298.424 3.35733 296.803 2.632C295.182 1.90666 293.261 1.544 291.04 1.544H279.582ZM215.016 1C213.086 1 211.3 1.306 209.659 1.918C208.017 2.53 206.595 3.39939 205.394 4.52617C204.193 5.65295 203.258 6.96761 202.589 8.47017C201.92 9.97272 201.586 11.6254 201.586 13.4281C201.586 15.2308 201.92 16.8911 202.589 18.4091C203.258 19.927 204.193 21.247 205.394 22.369C206.595 23.491 208.018 24.358 209.661 24.97C211.304 25.582 213.095 25.888 215.033 25.888C216.971 25.888 218.756 25.582 220.388 24.97C222.02 24.358 223.437 23.491 224.638 22.369C225.839 21.247 226.774 19.927 227.443 18.4091C228.112 16.8911 228.446 15.2308 228.446 13.4281C228.446 11.6254 228.112 9.97272 227.443 8.47017C226.774 6.96761 225.839 5.65295 224.638 4.52617C223.437 3.39939 222.02 2.53 220.388 1.918C218.756 1.306 216.965 1 215.016 1Z" fill="black"/>
<path d="M70.788 7.73199C71.8987 7.73199 72.7203 7.98133 73.253 8.48C73.7857 8.97867 74.052 9.65867 74.052 10.52C74.052 11.3813 73.7857 12.0613 73.253 12.56C72.7203 13.0587 71.8987 13.308 70.788 13.308H67.864V7.73199H70.788ZM0 1.544V25.344H7.31V14.8639L12.478 23.202H16.014L21.1923 14.488L21.25 25.344H28.56L28.492 1.544H21.896L14.3569 14.2108L6.596 1.544H0ZM40.256 1.544L29.852 25.344H38.012L39.6063 21.196H48.6577L50.252 25.344H58.548L48.144 1.544H40.256ZM59.84 1.544V25.344H67.864V19.36H70.0497L74.086 25.344H82.654L77.6591 18.024C78.993 17.3414 80.046 16.421 80.818 15.263C81.702 13.937 82.144 12.356 82.144 10.52C82.144 8.684 81.702 7.09167 80.818 5.743C79.934 4.39433 78.6817 3.35733 77.061 2.632C75.4403 1.90666 73.5193 1.544 71.298 1.544H59.84ZM95.132 1C92.684 1 90.6383 1.36266 88.995 2.088C87.3517 2.81333 86.1163 3.78233 85.289 4.995C84.4617 6.20766 84.048 7.55067 84.048 9.02399C84.048 10.2933 84.286 11.353 84.762 12.203C85.238 13.053 85.867 13.7387 86.649 14.26C87.431 14.7813 88.2923 15.2007 89.233 15.518C90.1737 15.8353 91.1087 16.0903 92.038 16.283C92.9673 16.4757 93.823 16.657 94.605 16.827C95.387 16.997 96.016 17.2067 96.492 17.456C96.968 17.7053 97.206 18.0453 97.206 18.476C97.206 18.748 97.104 18.9803 96.9 19.173C96.696 19.3657 96.373 19.513 95.931 19.615C95.489 19.717 94.8827 19.768 94.112 19.768C92.7973 19.768 91.443 19.5697 90.049 19.173C88.655 18.7763 87.3913 18.2493 86.258 17.592L83.674 23.44C84.8753 24.1653 86.4053 24.7547 88.264 25.208C90.1227 25.6613 92.0493 25.888 94.044 25.888C96.5147 25.888 98.566 25.5197 100.198 24.783C101.83 24.0463 103.06 23.0717 103.887 21.859C104.714 20.6463 105.128 19.3147 105.128 17.864C105.128 16.6173 104.89 15.5747 104.414 14.736C103.938 13.8973 103.309 13.2173 102.527 12.696C101.745 12.1747 100.889 11.7553 99.96 11.438C99.0307 11.1207 98.0957 10.8713 97.155 10.69C96.2143 10.5087 95.353 10.3387 94.571 10.18C93.789 10.0213 93.16 9.823 92.684 9.585C92.208 9.347 91.97 9.02399 91.97 8.616C91.97 8.34399 92.0663 8.09467 92.259 7.868C92.4517 7.64133 92.7747 7.46 93.228 7.324C93.6813 7.188 94.2933 7.12 95.064 7.12C96.1067 7.12 97.1777 7.26733 98.277 7.562C99.3763 7.85667 100.515 8.29867 101.694 8.888L104.108 3.074C102.861 2.37133 101.456 1.85 99.892 1.50999C98.328 1.17 96.7413 1 95.132 1Z" fill="#FD9727"/>
</svg>
