<svg width="80" height="80" viewBox="0 0 80 80" fill="none" xmlns="http://www.w3.org/2000/svg">
<path d="M60 0H20C8.9543 0 0 8.9543 0 20V60C0 71.0457 8.9543 80 20 80H60C71.0457 80 80 71.0457 80 60V20C80 8.9543 71.0457 0 60 0Z" fill="#A9C2CB"/>
<g clip-path="url(#clip0_37_2)">
<path d="M21.25 59.2249V62.2273C21.25 62.7434 21.6723 63.1658 22.1884 63.1658H57.9943C58.5103 63.1658 58.9326 62.7434 58.9326 62.2273V59.2249C58.9326 52.8162 54.0159 47.5335 47.7573 46.9424C50.3283 45.5161 52.28 43.3015 53.3403 40.571L54.7853 40.2053C56.7463 39.7268 58.1069 37.972 58.1069 35.9546V31.4507C58.1069 29.696 57.0654 28.148 55.4984 27.4536V17.1885C55.4984 16.6724 55.0761 16.25 54.5601 16.25C54.044 16.25 53.6218 16.6724 53.6218 17.1885V26.9094L53.1151 26.7781C50.9758 22.3023 45.9464 19.1589 40.0913 19.1589C34.2362 19.1589 29.207 22.3116 27.0582 26.7874L25.3881 27.2095C23.4364 27.7068 22.0664 29.4521 22.0664 31.4507V35.9546C22.0664 37.972 23.4364 39.7173 25.3787 40.1958L26.8236 40.5618C27.9308 43.2266 30.0421 45.4597 32.7538 46.9141C26.3451 47.3551 21.25 52.7036 21.25 59.2249ZM27.8276 31.8542C35.4467 27.7257 44.7454 27.7257 52.3551 31.8542V36.0671C44.736 40.1957 35.4373 40.1957 27.8276 36.0671V31.8542ZM56.2396 35.9546C56.2396 37.1087 55.4609 38.1033 54.335 38.3848L53.9596 38.4788C54.0628 37.9721 54.1379 37.4465 54.1848 36.9116C54.213 36.8178 54.2411 36.7148 54.2411 36.6116V36.2737V31.6292V31.2913C54.2411 31.2068 54.2316 31.1224 54.2035 31.0474C54.166 30.3155 54.0628 29.6023 53.8845 28.908L54.335 29.0205C55.4516 29.302 56.2396 30.306 56.2396 31.4414V35.9546V35.9546ZM40.0913 21.0354C46.059 21.0354 51.0414 24.7418 52.1299 29.6304C44.5577 25.9616 35.625 25.9616 28.0529 29.6304C29.1413 24.7418 34.1236 21.0354 40.0913 21.0354ZM25.8478 38.3848C24.7312 38.1127 23.9524 37.1089 23.9524 35.9641V31.4602C23.9524 30.3155 24.7312 29.3208 25.8572 29.0393L26.3075 28.9268C26.1292 29.6211 26.0354 30.3343 25.9885 31.0662C25.9698 31.1412 25.951 31.2256 25.951 31.3101V31.6477V36.2925V36.6301C25.951 36.7146 25.9604 36.7992 25.9885 36.8743C26.0167 37.4185 26.0823 37.9533 26.1855 38.4788L25.8478 38.3848ZM28.4281 39.5579C28.4093 39.4734 28.3813 39.3795 28.3344 39.3044C28.2218 38.976 28.1279 38.6288 28.0435 38.291C31.8342 40.1207 35.9533 41.0403 40.0819 41.0403C44.1917 41.0403 48.3016 40.1301 52.0736 38.3098C50.9101 43.5174 46.1903 47.0455 40.1007 46.886C40.0913 46.886 40.0819 46.886 40.0819 46.886C34.6491 46.8766 30.0326 43.799 28.4281 39.5579ZM33.5889 48.7627H46.5939C52.3645 48.7627 57.056 53.4542 57.056 59.2249V61.2891H23.1267V59.2249C23.1267 53.4542 27.8183 48.7627 33.5889 48.7627Z" fill="white" stroke="white" stroke-width="0.5"/>
</g>
<defs>
<clipPath id="clip0_37_2">
<rect width="38.1826" height="47.4156" fill="white" transform="translate(21 16)"/>
</clipPath>
</defs>
</svg>
