<?xml version="1.0" encoding="UTF-8"?>
<svg xmlns="http://www.w3.org/2000/svg" width="245.989920575856" height="51.48773110847182" viewBox="687.5074450647626 45.855836795401174 245.989920575856 51.48773110847182" preserveAspectRatio="none">
  <g>
    <defs>
      <path id="mi-525acb06-Union_5-738e0" d="M765.0611922247263 64.67369532201712 C765.734840768023 64.67369532201712 766.3635264330239 64.98805057062916 766.9436071603686 65.61674865174173 C767.5236216684519 66.24545501026194 767.8118078928131 67.11740126966326 767.8118078928131 68.15400999922822 C767.8118078928131 69.19062286749698 767.5610355509805 70.0401207973812 767.0521405293317 70.70624517713375 C766.5431792884217 71.36862402992962 765.9406502315602 71.70169449721352 765.2408450801244 71.70169449721352 L759.8070911710244 71.70169449721352 L759.8107994496464 71.69794897025686 L759.8107994496464 64.67369532201712 Z M845.8569681894922 69.96153095055226 C846.968392268003 69.96153095055226 847.8965214317542 70.3133042203966 848.6449315208464 71.01310937183243 C849.3926794173277 71.7159357770565 849.826680454658 72.66523027214095 849.9469346328384 73.87220874443663 L841.7628961519571 73.87220874443663 C841.8863950739316 72.68964862467615 842.3129795540179 71.73911251844588 843.050198587982 71.02808320225148 C843.7874838412075 70.31704560864944 844.7454778917205 69.96153095055226 845.8569681894922 69.96153095055226 Z M727.36806307211 77.10803777091695 C727.3666724676266 77.1097015298524 727.3652156438823 77.11136528878784 727.3637588201378 77.11302904772329 C727.3652156438823 77.11230891325869 727.3666724676266 77.11159705620173 727.36806307211 77.11087692173713 L727.36806307211 77.10803777091695 Z M785.3368677847319 70.72496039580567 C786.5418596791939 70.72496039580567 787.5448166080025 71.17777184199605 788.3418978540124 72.08340301178451 C789.1390453192834 72.98903418157295 789.5356986933467 74.1903012425977 789.5356986933467 75.68721247226641 C789.5356986933467 76.40947423062698 789.4271653243837 77.08308138688521 789.210098586457 77.69681805369021 C788.9930980677918 78.31429610874804 788.6974290669249 78.83820634785405 788.3232240223786 79.27231499148402 C787.9489527585716 79.70642363511399 787.5074027254743 80.04696446279216 787.0021497631864 80.28647125282806 C786.49696302016 80.5297194311168 785.9393968415935 80.64946868743094 785.3368677847319 80.64946868743094 C784.1056530628688 80.64946868743094 783.0915050789325 80.19666137994435 782.2944238329226 79.29103021015594 C781.4972763676517 78.38539904036746 781.1006229935882 77.18412370193509 781.1006229935882 75.68721247226641 C781.1006229935882 74.96495899131347 781.2091563625517 74.2913435576476 781.4261568812166 73.67761516825021 C781.6432236191433 73.06387850144525 781.9388926200102 72.53621859667872 782.3130976645563 72.10210995304872 C782.6873027091026 71.6680095868264 783.1326934593445 71.32746462044446 783.6528457553825 71.08796196911236 C784.1729980514201 70.84470965211979 784.73433872787 70.72496039580567 785.3368677847319 70.72496039580567 Z M901.1528324273119 70.72496039580567 C902.0471897678959 70.72496039580567 902.8929421708236 71.02059628704194 903.6900896360947 71.61187634692222 C904.4872371013654 72.20316054550628 905.078442664577 73.00399973458434 905.4639712027737 74.01815599592838 L905.4639712027737 78.00368638709269 C905.0560605543209 78.77459447014796 904.5059109329992 79.41077946647006 903.8173630559526 79.90475859955326 C903.1286827403836 80.39873773263648 902.3390842708792 80.64572729917809 901.4447269302956 80.64572729917809 L901.4447269302956 80.64946868743094 C900.7935267165159 80.64946868743094 900.1873556002932 80.5297194311168 899.633497700349 80.28647125282806 C899.0796398004051 80.04696446279216 898.6006096655179 79.70642363511399 898.2039562914543 79.27231499148402 C897.8034622002466 78.83820634785405 897.489185587007 78.32552027350657 897.2608615746918 77.73424021362635 C897.032537562376 77.14296015374607 896.9165214169071 76.49555099266544 896.9165214169071 75.79573756382196 C896.9165214169071 75.1445870144885 897.0175720093649 74.50840201816638 897.2233814729021 73.8946653513614 C897.4291909364393 73.27718729630355 897.7173771608008 72.73456183852562 898.091648424608 72.26303103495951 C898.465787249893 71.79150437009721 898.9111780001348 71.41727449332816 899.4313965154339 71.1403496820599 C899.9514825922107 70.86342073208786 900.524146762311 70.72496039580567 901.1528324273119 70.72496039580567 Z M923.3931010259997 70.72496039580567 C924.2837500879617 70.72496039580567 925.1295024908892 71.02059628704194 925.9266499561601 71.61187634692222 C926.7237974214314 72.20316054550628 927.3150029846428 73.00399973458434 927.7005315228388 74.01815599592838 L927.7005315228388 78.00368638709269 C927.2889125957646 78.77459447014796 926.742471253065 79.41077946647006 926.0539233760184 79.90475859955326 C925.3653754989713 80.39873773263648 924.5757770294673 80.64572729917809 923.6812872503614 80.64572729917809 L923.6812872503614 80.64946868743094 C923.0263787579596 80.64946868743094 922.4239159203588 80.5297194311168 921.8700580204146 80.28647125282806 C921.3162001204709 80.04696446279216 920.840878264206 79.70642363511399 920.4405166115201 79.27231499148402 C920.0438632374565 78.83820634785405 919.7294541856955 78.32552027350657 919.5011301733799 77.73424021362635 C919.2729385995866 77.14296015374607 919.1569224541175 76.49555099266544 919.1569224541175 75.79573756382196 C919.1569224541175 75.1445870144885 919.2579730465751 74.50840201816638 919.4637825101125 73.8946653513614 C919.6658836950274 73.27718729630355 919.9577781980109 72.73456183852562 920.3319170232959 72.26303103495951 C920.7061882871031 71.79150437009721 921.1515790373452 71.41727449332816 921.6716651141218 71.1403496820599 C922.1918836294204 70.86342073208786 922.7644153609989 70.72496039580567 923.3931010259997 70.72496039580567 Z M753.8680842996364 59.46070815205812 L753.8680842996364 85.16640037161463 L759.8070911710244 85.16640037161463 L759.8070911710244 76.87351398027974 L763.6803219727495 76.87351398027974 L768.8595952613947 85.16640037161463 L775.5582694962637 85.16640037161463 L769.6529682287821 75.6048853758884 C770.307876721184 75.2456210521307 770.8916657271509 74.80403790940267 771.4118842424499 74.28386078114188 C771.9320365384879 73.7674250411339 772.3698782929629 73.17989464691415 772.7328922823812 72.52873582017304 C773.0959062717992 71.87757285472807 773.3728352217713 71.18525875720557 773.5673874109195 70.44802730712976 C773.7582975407066 69.71454138401066 773.8555736352807 68.94737882791206 773.8555736352807 68.1502727496792 C773.8555736352807 67.08746602493665 773.64598967386 66.03588760365648 773.2231134723961 64.9992747353877 C772.8002372709326 63.96266600582275 772.2164482649656 63.03083684085672 771.467971956612 62.21128243310675 C770.7195618675196 61.39172388665297 769.8326210841803 60.72559950690043 768.8072158258549 60.22038793165101 C767.7818767867903 59.715180495105436 766.6666782103964 59.46070815205812 765.4579118180508 59.46070815205812 Z M817.1350258746 58.73844639369755 L817.1350258746 85.17388314812031 L822.9280192752353 85.17388314812031 L822.9280192752353 79.63157931524172 L824.9563152431081 77.53215558352657 L829.9185880130879 85.17388314812031 L829.9185880130879 85.17762453637316 L836.0746616224022 85.17762453637316 L828.6873732912252 74.34748093625562 L835.5319947775862 66.16312377518013 L829.3759873875329 66.16312377518013 L822.9280192752353 74.05931954411737 L822.9280192752353 58.73844639369755 Z M871.674931027561 59.46070815205812 L871.674931027561 85.17762453637316 L889.7462998236564 85.17762453637316 L889.7462998236564 79.96089597816129 L877.6138716796876 79.96089597816129 L877.6138716796876 74.49342818774734 L887.7554839575738 74.49342818774734 L887.7554839575738 69.67711922407453 L877.6138716796876 69.67711922407453 L877.6138716796876 64.6774408489738 L889.4207659360283 64.6774408489738 L889.4207659360283 59.46070815205812 Z M785.3368677847319 65.79263528666388 C783.7201907439339 65.79263528666388 782.27939206065 66.06582284838309 781.0108296755196 66.60844830616102 C779.7421348518676 67.15482342959942 778.6718991537687 67.87708104925618 777.803632202063 68.78271221904461 C776.9354314696184 69.68833925012925 776.2768146985945 70.73991767140942 775.8314901676134 71.93370609463227 C775.3861656366325 73.13124004481183 775.1616161222007 74.37741204227842 775.1616161222007 75.68347108401358 C775.1616161222007 76.98952184834103 775.3861656366325 78.2394435114681 775.8314901676134 79.43322779598714 C776.2768146985945 80.62702035791385 776.9354314696184 81.67859877919405 777.803632202063 82.58422167157481 C778.6756074323911 83.48985284136327 779.7421348518676 84.20837321147098 781.0108296755196 84.73977450449038 C782.2756837820277 85.27117579750973 783.7201907439339 85.53688058272321 785.3368677847319 85.53688058272321 C786.9572531041522 85.53688058272321 788.3980517874356 85.27117579750973 789.6666803918271 84.73977450449038 C790.9316007175964 84.20837321147098 792.0018364156948 83.48985284136327 792.8700371481392 82.58422167157481 C793.7420123784674 81.67859877919405 794.4006291494912 80.62702035791385 794.8460198997332 79.43322779598714 C795.2913444307143 78.23570212321523 795.5158277258852 76.98952184834103 795.5158277258852 75.68347108401358 C795.5158277258852 74.37741204227842 795.2838616542084 73.12749037915131 794.8272798488385 71.93370609463227 C794.3706980434686 70.73991767140942 793.7045984959391 69.68833925012925 792.8363977634942 68.78271221904461 C791.9644225331662 67.87708104925618 790.9016033923123 67.15107790264275 789.6479403409323 66.60844830616102 C788.3905690109301 66.06582284838309 786.9535448255299 65.79263528666388 785.3368677847319 65.79263528666388 Z M858.7490636969432 60.11186697879925 L858.7490636969432 66.15937824822348 L856.3241143550068 66.15937824822348 L856.3241143550068 70.54158684567396 L858.7490636969432 70.54158684567396 L858.7490636969432 80.46609927600306 C858.7490636969432 81.38295461055009 858.88759439119 82.1688365240244 859.1645233411622 82.8199870733579 C859.4414522911344 83.47114590009905 859.8231401121863 83.99881408227319 860.3058785256954 84.39549228855937 C860.7886169392051 84.79217049484556 861.3500238349158 85.08406499782902 861.9899667743058 85.26369302100402 C862.629777275174 85.44707070983952 863.3146168735985 85.53688058272321 864.0369365738126 85.53688058272321 C865.0997557146667 85.53688058272321 866.1363520281201 85.3909333312315 867.1504337927951 85.10278021650089 C868.1646479959926 84.81088571351745 869.0702626109659 84.5002759918621 869.8674100762368 84.15972688677627 L869.8637017976145 84.15598549852344 L868.7783681079821 79.55672671796178 C868.4153541185643 79.72513057637826 868.0037351914895 79.88231027003617 867.5472196053805 80.0282575215279 C867.0905715807497 80.17420477301962 866.656570543419 80.2452994272314 866.244819177822 80.2452994272314 C865.7620807643128 80.2452994272314 865.3580108330049 80.10684322965304 865.032344506854 79.82991427968099 C864.7031023406031 79.55298532970895 864.5421895361002 79.1001697448147 864.5421895361002 78.47146752499832 L864.5421895361002 70.54158684567396 L868.4153541185643 70.54158684567396 L868.4153541185643 66.15937824822348 L864.5421895361002 66.15937824822348 L864.5421895361002 60.11186697879925 Z M806.5218662383326 65.79638081362057 C804.9051891975344 65.79638081362057 803.4644567335121 66.06208146013024 802.1958281291207 66.5934827531496 C800.9309078033516 67.12488404616897 799.8606058859918 67.84340855498053 798.9924051535475 68.74903972476895 C798.1242044211027 69.65466675585358 797.4618131521952 70.70624517713375 797.001523068203 71.90003360035664 C796.5412329842108 73.09755927312852 796.3129751911563 74.34748093625562 796.3129751911563 75.64979031233027 L796.3092006932727 75.64604892407742 C796.3092006932727 76.95210796581253 796.5375247055883 78.20202135153195 796.9978147895808 79.39581391345867 C797.4543303756897 80.58959819797771 798.1242044211027 81.64117661925786 799.0073707065586 82.54680778904634 C799.8868287133924 83.45243895883478 800.9608389093746 84.17844210544818 802.2294675137658 84.72106756322611 C803.498096118157 85.26369302100402 804.9276375270516 85.53688886013086 806.5218662383326 85.53688886013086 C808.7186240064751 85.53688886013086 810.5822326719616 85.06909944481758 812.1165991711971 84.126046115093 C813.6508994511713 83.18299278536841 814.766098027565 81.97423467043033 815.4659031790012 80.50352143593922 L809.8150825319744 78.76336202798178 C809.5269625268744 79.32096959358637 809.0778634980103 79.77377690107294 808.4753344411484 80.12181706007208 C807.8728716035479 80.46984066425594 807.2067058367571 80.64572729917809 806.4844523558041 80.64572729917809 C805.908146126343 80.64572729917809 805.3580627242823 80.52596976545632 804.837844208983 80.28272986457523 C804.3176919129455 80.0432230745393 803.8648846054588 79.7026739694535 803.4794222865233 79.26857360323118 C803.0939599675881 78.83447323700882 802.7908081902157 78.31054644308753 802.5738076715503 77.69307666543736 C802.3567409336238 77.0755986103795 802.2482075646607 76.39450040020792 802.2482075646607 75.64604892407742 C802.2482075646607 74.14913769440871 802.6523437152298 72.95535340988964 803.4606822356285 72.06094640485976 C804.2690207560277 71.17028492678654 805.2756859634584 70.72121486884897 806.4844523558041 70.72121486884897 C807.9364420942157 70.72121486884897 809.032966838976 71.32371909348777 809.7813769280682 72.53247720842585 L815.432263794356 70.82974409910838 C814.6837874860025 69.33283286943968 813.5611061331028 68.12033336624876 812.0642197356572 67.18850420128271 C810.5672671189501 66.26042056327334 808.7186240064751 65.79638081362057 806.5218662383326 65.79638081362057 Z M845.9280876759268 65.80760497837912 C844.3076361372456 65.80760497837912 842.8668374539619 66.0733056248888 841.5982750688316 66.60471105661198 C840.3333547430624 67.13237096137848 839.2630528257029 67.8583699692881 838.3948520932585 68.77522944253892 C837.5266513608134 69.69208891578972 836.8604855940229 70.7586328900813 836.4039700079139 71.97861930848175 C835.9436799239216 73.19860158817842 835.7153559116063 74.49342818774734 835.7153559116063 75.87058188369426 C835.7153559116063 77.15044293025178 835.9436799239216 78.37416659820127 836.4039700079139 79.54550255320324 C836.8604855940229 80.71683023079754 837.534134137319 81.74595204515299 838.4135921441529 82.64035905018284 C839.2929839317256 83.53475777780511 840.3669941277077 84.23831259490144 841.6356889513598 84.75848972316226 C842.9043175557516 85.27865857401541 844.3338589646456 85.53688058272321 845.9280876759268 85.53688058272321 L845.9280876759268 85.54810474748177 C848.1247130055473 85.54810474748177 850.0071941604507 85.08032360957614 851.5788421036922 84.13727027985155 C853.1469142068341 83.19795833837983 854.306943223001 81.97797605868317 855.0554857506157 80.48106482901449 L850.1306268631641 79.10391113306756 C849.8649551875814 79.80371628450337 849.3410283936602 80.35757418444749 848.5551382027783 80.76921794374509 C847.7729562905184 81.17712859219746 846.9571349936133 81.38295461055009 846.111382590686 81.38295461055009 C845.0486296690932 81.38295461055009 844.0980521758244 81.04988828196998 843.2672653259086 80.38751356787796 C842.4327701973701 79.72513057637826 841.9687056154941 78.7521295858156 841.8714295209205 77.47227681666567 L855.9236202637993 77.47227681666567 C855.972357639978 77.22902863837693 856.0059970246226 76.94461691189917 856.0322198520236 76.61903335982478 C856.0584426794238 76.29345808515802 856.0695675152909 75.9604000339856 856.0695675152909 75.62359231715264 C856.0695675152909 74.31754155282516 855.8450842201197 73.07510266620378 855.3998259084 71.89254254644328 C854.9544351581579 70.70998656538661 854.2958183871341 69.66588678190831 853.4275514354284 68.7602597508237 C852.5555762051005 67.85462858103526 851.4928895027684 67.13611234963136 850.2390940128663 66.60471105661198 C848.9817226828642 66.0733056248888 847.5484729953474 65.80760497837912 845.9280876759268 65.80760497837912 Z M724.3695224904184 50.19938989917732 C718.689962684069 50.19938989917732 711.6728400225103 53.42535639445567 705.8264738974189 59.27169354862041 C696.8969389749342 68.20122019369754 694.0803689227794 79.86212995021216 699.5346508028242 85.31639527544188 C701.4178603696 87.1996379518479 704.0410701793063 88.09685099806747 707.0362997979424 88.09685099806747 C707.0402067343481 88.09685099806747 707.0440474514926 88.09685099806747 707.0478881686371 88.09684272065982 L707.047225976026 88.09684272065982 C712.7253289586308 88.09378835724101 719.738610903045 84.8681074325262 725.5821958191698 79.02454734862434 C726.2052528469762 78.39867600222048 726.8000342502879 77.76149771698174 727.3637588201378 77.11302904772329 C727.3634939430933 77.11316148624552 727.3631628467876 77.113310479583 727.3628979697434 77.11344291810524 C734.8624941677668 68.4938555246647 736.9438979830517 58.05253900968767 731.8711714855366 52.97984976050674 C729.9879619187609 51.096602945396846 727.3647521090543 50.19938989917732 724.3695224904184 50.19938989917732 Z M899.8467237211308 65.80011806316959 C898.5444557320947 65.80011806316959 897.3469466141379 66.05459454492073 896.2616129245056 66.55980612017014 C895.176411673396 67.0650094180119 894.2445742310223 67.76107318119489 893.4736495931512 68.64051049450957 C892.6990166766583 69.5199395304166 892.0965538390582 70.5602937869382 891.6624203632051 71.75407807145724 C891.2282868873525 72.94786235597631 891.0112201494259 74.24643862120574 891.0112201494259 75.64604892407742 C891.0112201494259 76.97454801792199 891.2170296129628 78.21698690454338 891.6287809785598 79.37709869478675 C892.0403999056347 80.53720220762251 892.6129316372122 81.55135846896653 893.3502168904382 82.41956747881885 C894.0836614265191 83.29151787692402 894.9668939312361 83.97634919794079 895.9922329703005 84.48530216144306 C897.020750533898 84.99025713705565 898.1578676857204 85.24472948010295 899.4144443845893 85.24498607973977 C900.6711535219803 85.2447129252877 901.8456183370698 84.9715336409761 902.9453878256244 84.42917306024263 C904.0455546297459 83.8865393250571 904.8838904754292 83.0856918585714 905.4639712027737 82.02288099512504 L905.4639712027737 83.87156549463806 C905.4639712027737 84.76597249966797 905.3254405085264 85.53313919447035 905.0485115585544 86.17306557904531 C904.7715826085822 86.81300024102788 904.3898947875306 87.32943598103586 903.9071563740209 87.7298555755749 C903.4244179605115 88.12653378186108 902.8705600605673 88.42217795050503 902.2418743955667 88.61677152669144 C901.6130562920431 88.80763199203265 900.9507312423967 88.90492464142206 900.2509260909609 88.90492464142206 C899.0683825260159 88.90492464142206 897.9532501688831 88.669159239639 896.9015558638959 88.19763671348053 C895.8499939974312 87.72611418732205 894.9743104884807 87.0936705792528 894.2745053370451 86.29656450101993 L891.1946475027072 89.4475583766076 C892.279848753817 90.67877309847043 893.5484773582087 91.6218181507874 894.9968250372589 92.27297697752853 C896.4450402777871 92.92413580426967 898.1964072956879 93.24971107893639 900.2472178123388 93.24971107893639 C901.8638948531367 93.24971107893639 903.3457494783103 93.03266089582525 904.7004631221479 92.59855225219528 C906.051468487363 92.16445188597295 907.2116299420517 91.54323244266224 908.1771067690707 90.73490219967086 C909.1425835960894 89.92283056842656 909.8985426809487 88.94235507876583 910.4411433065035 87.78224328852245 C910.9837439320587 86.62588116393955 911.2569646034082 85.31983039961204 911.2569646034082 83.87156549463806 L911.2569646034082 66.16311963647632 L906.2236385662546 66.16311963647632 L906.2236385662546 69.27669549083166 C905.5724383524758 68.1914362978682 904.7004631221479 67.34193836798396 903.6152618710374 66.72446031292613 C902.5262199027828 66.10698639657208 901.2725568514032 65.80011806316959 899.8467237211308 65.80011806316959 Z M922.0908330369635 65.80011806316959 C920.7885650479269 65.80011806316959 919.5910559299706 66.05459454492073 918.5057222403381 66.55980612017014 C917.4205209892285 67.0650094180119 916.4886835468548 67.76107318119489 915.7177589089837 68.64051049450957 C914.9431259924908 69.5199395304166 914.3406631548904 70.5602937869382 913.9065296790376 71.75407807145724 C913.4723962031845 72.94786235597631 913.2553294652583 74.24643862120574 913.2553294652583 75.64604892407742 C913.2553294652583 76.97454801792199 913.4574306501735 78.21698690454338 913.8690495772481 79.37709869478675 C914.2806685043223 80.53720220762251 914.8533326744226 81.55135846896653 915.5904854891259 82.41956747881885 C916.3240624637293 83.29151787692402 917.2071625299242 83.97634919794079 918.2325015689884 84.48530216144306 C919.2579730465751 84.99051373669245 920.3956199524861 85.24498607973977 921.6529912824882 85.24498607973977 L921.6566995611105 85.24498607973977 C922.9142033296349 85.24498607973977 924.0891978988135 84.97179851802056 925.1894971414569 84.42917306024263 C926.2859556669563 83.8865393250571 927.1241590741171 83.0856918585714 927.7042398014615 82.02288099512504 L927.7042398014615 83.87156549463806 C927.7042398014615 84.76597249966797 927.5658415457364 85.53313919447035 927.2889125957646 86.17306557904531 C927.0119836457924 86.81300024102788 926.6301633862184 87.32943598103586 926.1474249727088 87.7298555755749 C925.6646865591996 88.12653378186108 925.1071203806331 88.42217795050503 924.4821429942541 88.61677152669144 C923.8534573292533 88.80763199203265 923.1911322796071 88.90492464142206 922.4913271281711 88.90492464142206 C921.3086511247035 88.90492464142206 920.1935187675712 88.669159239639 919.1419569011058 88.19763671348053 C918.0903950346413 87.72611418732205 917.2147115256906 87.0936705792528 916.514906374255 86.29656450101993 L913.4349161013948 89.4475583766076 C914.5202497910274 90.67877309847043 915.7888783954187 91.6218181507874 917.2370936359467 92.27297697752853 C918.6854413149969 92.92413580426967 920.4368083328978 93.24971107893639 922.4874864110267 93.24971107893639 C924.1041634518248 93.24971107893639 925.5898587941423 93.03266089582525 926.9408641593576 92.59855225219528 C928.2917370860504 92.16445188597295 929.4518985407398 91.54323244266224 930.4173753677586 90.73490219967086 C931.3828521947777 89.92283056842656 932.1388112796366 88.94235507876583 932.6814119051918 87.78224328852245 C933.2241449692689 86.62588116393955 933.4973656406186 85.31983039961204 933.4973656406186 83.87156549463806 L933.4973656406186 66.16311963647632 L928.4639071649432 66.16311963647632 L928.4639071649432 69.27669549083166 C927.812839389686 68.1914362978682 926.9408641593576 67.34193836798396 925.8555304697255 66.72446031292613 C924.7703292186155 66.10698639657208 923.5166661672357 65.80011806316959 922.0908330369635 65.80011806316959 Z M726.0774496730292 45.855836795401174 C718.942059411124 45.855836795401174 710.1264878370135 49.908281749919574 702.7799243514208 57.25296626397838 C702.5442500011217 57.488624059462126 702.3114230790505 57.72996429529009 702.0814435852072 57.96846538029784 L702.0842910134348 57.971300392414214 C697.9730681872719 57.97413954323442 694.1655931118311 59.33415486666468 691.3631939815543 62.136520887310844 C689.3556246424096 64.14409436515926 688.0880555461963 66.66524787738018 687.530555586891 69.44675069207213 C687.5222781792518 69.48491367999195 687.5143980871793 69.52307252920797 687.5074450647626 69.56123551712783 C687.507643722546 69.56121896231254 687.5078423803294 69.56119826879345 687.5080410381127 69.56118171397816 C687.5078423803294 69.56214603196811 687.507643722546 69.56311034995805 687.5074450647626 69.56407466794802 C688.0085924328613 69.5110620107237 688.5213943909158 69.48477296406209 689.0439967996148 69.48477296406209 C691.2364503157852 69.48477296406209 693.6009414723256 69.9475669638652 695.9968867778944 70.84175047888884 C697.6664067890601 66.7247955479355 700.4574162064255 62.49994874711097 704.2421780753048 58.71519515563945 C710.722924721853 52.23441953816446 718.5013040091598 48.65808279363658 724.79643806681 48.65808279363658 C728.1155460915468 48.65808279363658 731.0222405580756 49.65225325423612 733.1090743527717 51.73908704893226 C738.1120719683357 56.742059832273306 736.8389404541887 66.45114031268469 730.6463138127406 75.25966781289415 L730.6445921119516 75.25966781289415 C729.3798042247048 77.06093932145075 727.9082135850038 78.8241182000524 726.2430640450714 80.50123687143086 C726.207438082593 80.53715254317666 726.1716796815923 80.5730268278843 726.1358550613306 80.60886800296142 C726.1336036064527 80.61107807080104 726.131418370836 80.61329641604831 726.1291669159584 80.61551476129556 C722.3461267478681 84.39406029703778 718.1210067925912 87.18561602330736 714.0092542123391 88.85413446814884 C714.0098501856892 88.85559129189333 714.0103799397781 88.85705639304543 714.010909693867 88.85851321678992 C715.1170362314886 91.82405177422464 715.5622283239471 94.74123371623207 715.2869548555027 97.343567903873 C718.1148484013078 96.7984261141728 720.6815731812856 95.52358945405214 722.7173519256642 93.48783554189659 C725.5225322649073 90.68263037043022 726.8825434496339 86.87799444580973 726.8825434496339 82.7667219552006 C727.1210652281609 82.53673418394962 727.3624344349156 82.30391553928604 727.5980425659534 82.06824946639465 C729.3604019811988 80.3074462037854 730.931718828135 78.46162568731549 732.3031859450338 76.57478233858643 C739.6715355675327 66.44325194320467 741.2805973933027 55.12642988354153 735.5026357649406 49.348414452029516 C733.1360918113054 46.98286378731129 729.8404254050026 45.855836795401174 726.0774496730292 45.855836795401174 Z "></path>
    </defs>
    <g style="mix-blend-mode:normal">
      <use xmlns:xlink="http://www.w3.org/1999/xlink" xlink:href="#mi-525acb06-Union_5-738e0" fill="#A9C2CB" fill-opacity="1.0"></use>
    </g>
  </g>
</svg>
