<?xml version="1.0" encoding="UTF-8"?>
<svg xmlns="http://www.w3.org/2000/svg" width="290.95575587784833" height="52.120384731529896" viewBox="3.0000000000001705 45.83911447318704 290.95575587784833 52.120384731529896" preserveAspectRatio="none">
  <g>
    <defs>
      <path id="mi-525acb06-Union_7-738e0" d="M35.198661928589125 47.23742158217379 C34.40899549861499 47.23742158217379 33.75923587962736 47.88932196064123 33.76277062202424 48.67974227933582 C33.759246547863974 49.46744219769478 34.404529063554136 50.11852467802209 35.19223253799198 50.1220451961035 C35.19437329747178 50.12205586434011 35.19651405695158 50.12205942041898 35.19865481643139 50.12205942041898 C35.98831413424777 50.12205942041898 36.63807019715653 49.47015904195154 36.63453901083853 48.67974227933582 C36.63805952891993 47.89203880489799 35.99277701322975 47.24095988064955 35.20507709487079 47.237435806489266 C35.20293633539098 47.23742513825267 35.20079913199005 47.23742158217379 35.198661928589125 47.23742158217379 Z M49.64784961243439 45.83911447318704 C48.08918468287918 45.83911447318704 46.806674170139615 47.12585671978203 46.813651196882766 48.686008090304945 C46.806699062691706 50.24080044997062 48.080376275517935 51.52592112460084 49.63516507910474 51.53287325879189 C49.639393256881284 51.53289103918623 49.64361787857897 51.532901707422845 49.64783894419778 51.532901707422845 C51.206503873753 51.532901707422845 52.4890108304137 50.24615946082786 52.48203024759168 48.686008090304945 C52.48898593786161 47.13121928671814 51.21530872503537 45.84609861208792 49.6605163653697 45.839142921818 C49.65629174367203 45.83912514142365 49.65207067805321 45.83911447318704 49.64784961243439 45.83911447318704 Z M223.80104787192184 64.95138837939948 L223.80104787192184 69.32994206313303 L255.8101814649709 69.32994206313303 L255.8101814649709 64.95138837939948 Z M127.31654871481162 69.05327912703893 C129.50582733471782 69.05327912703893 130.60047375682868 69.32393940200029 130.60047375682868 70.87566997775882 L130.60047375682868 73.33559464831089 L130.59444264706497 73.34161153375909 C130.59444264706497 74.89334922167536 129.5900352823619 75.1640094966367 127.31051760504795 75.1640094966367 L111.90139487884909 75.1640094966367 L111.17362911376685 74.52646856464673 L111.17362911376685 69.69081294687118 L111.81116293359906 69.05327912703893 Z M268.3340369269645 64.82583745881158 C262.4999623813031 64.82583745881158 260.67154042081955 65.92048032484357 260.67154042081955 70.38924106127504 L260.67154042081955 73.03561805914441 C260.67154042081955 77.41416818679909 262.49393127153945 78.599018105529 268.3340369269645 78.599018105529 L287.02706335870715 78.599018105529 L287.5743865697625 79.14634842874214 L287.5743865697625 83.33844622907954 L287.117273967484 83.97598716106951 L260.12424565839507 83.97598716106951 C260.12424565839507 83.97598716106951 259.4867118385629 84.34287493025586 259.4867118385629 84.43308553903266 C259.94379599221054 87.5365680270229 262.0428782276554 88.35453017656644 267.05293817753636 88.35453017656644 L286.2030772115577 88.35453017656644 C292.03712330858815 88.35453017656644 293.9557558778485 87.25989086661335 293.9557558778485 82.79112301802411 L293.9557558778485 79.59742992125709 C293.9557558778485 75.21887979360241 292.04315441835183 74.03402276271477 286.2030772115577 74.03402276271477 L267.510050779815 74.03402276271477 L266.96269912012866 73.39648894288256 L266.96269912012866 69.38481947225645 L267.510050779815 68.92772820645106 L292.7709272955918 68.92772820645106 L293.13780084046266 68.10975183259202 C292.3198458030769 65.92048032484357 290.0342827916837 64.82583745881158 285.9324169365963 64.82583745881158 Z M105.06292008064233 64.95138837939948 L104.14870910040054 65.67913992016624 L104.14870910040054 88.38384649077159 L111.17362911376685 88.38384649077159 L111.17362911376685 79.8131985627795 L111.81116293359906 79.17566474294729 L130.59444264706497 79.17566474294729 C135.33387077061556 79.17566474294729 137.5231209418908 77.90058999112512 137.5231209418908 74.61668628558128 L137.5231209418908 69.42015267190983 C137.5231209418908 66.22645957514278 135.33387077061556 64.95138837939948 130.59444264706497 64.95138837939948 Z M154.21935219080825 64.67472899938426 L150.47835721945899 69.23370745675028 L156.58906625258354 78.17125026608645 L156.22219270771268 78.99523641323596 L142.72567855316822 78.99523641323596 L139.26131806928205 83.27755193450788 L159.32565385922967 83.27755193450788 L160.78118538939418 84.10153096949963 L163.88466076522667 88.38384649077159 L171.99819609094013 88.38384649077159 L154.21935219080825 64.67472899938426 Z M223.80104787192184 72.79429543486141 L223.80104787192184 88.38384649077159 L255.53349008024585 88.38384649077159 L255.53349008024585 84.37219835661872 L231.82437258885852 84.37219835661872 L231.00638910284178 83.82487514556331 L231.00638910284178 77.44348450100422 L231.73414775576626 76.805950681172 L245.32088674340298 76.805950681172 L245.32088674340298 72.79429543486141 Z M68.9519206325059 64.8611742145438 C63.11785319900223 64.8611742145438 61.28942412636093 65.95582063665466 61.28942412636093 70.42458137308613 L61.28942412636093 73.07095837095551 C61.28942412636093 77.44950849861017 63.111836313554 78.63436552949781 68.9519206325059 78.63436552949781 L87.6449328399331 78.63436552949781 L88.19227738746176 79.18168162839551 L88.19227738746176 83.37378654089063 L87.73517189734086 84.01132036072285 L60.74212225177873 84.01132036072285 C60.74212225177873 84.01132036072285 60.10458843194651 84.37821524206696 60.10458843194651 84.46842585084376 C60.561693922067406 87.57190833883399 62.660747708881324 88.38986337621981 67.67082899523551 88.38986337621981 L86.82095380494134 88.38986337621981 C92.65502123844502 88.38986337621981 94.57363958338989 87.29522406626668 94.57363958338989 82.82646332983522 L94.57363958338989 79.63277023306817 C94.57363958338989 75.25422010541348 92.66103812389323 74.06936307452584 86.82095380494134 74.06936307452584 L68.1279344853564 74.06936307452584 L67.5805970499855 73.43182925469362 L67.5805970499855 69.42015267190983 L68.1279344853564 68.96306851826216 L93.38880388897546 68.96306851826216 L93.75567743384633 68.14508503224539 C92.93771528430278 65.95582063665466 90.6521807215406 64.8611742145438 86.55029352998001 64.8611742145438 Z M187.87045541702352 64.95138837939948 C182.0363950956776 64.95138837939948 180.20798735950956 66.04603480151033 180.20798735950956 70.51479198186291 L180.20798735950956 82.91668105076975 C180.20798735950956 87.29522406626668 182.03040665886033 88.48008109715433 187.87045541702352 88.48008109715433 L206.38306063121263 88.48008109715433 C211.57960135704184 88.48008109715433 213.58843031076353 87.47567373245124 213.76886575263256 84.10153096949963 L188.1411156919849 84.10153096949963 L187.4133712633759 83.37378654089063 L187.4133712633759 69.69682983231938 L188.1411156919849 69.14349684797348 L213.94930119450163 69.14349684797348 C213.58241342531528 65.85958247419303 211.48937652394955 64.95138837939948 206.38306063121263 64.95138837939948 Z M25.92324539756777 59.09190920629004 C34.38922014401835 59.09190920629004 41.27705687302102 65.97973526705611 41.27705687302102 74.44635721986106 C41.27705687302102 76.56083016465575 40.51694501453632 79.30083871917493 39.740414739908346 81.13613813619327 C41.786955910047475 83.51657021968306 43.47072369425294 85.73411255444884 44.67099632704248 87.61152305744695 C46.434011328868216 90.3691768753196 47.15643230740868 92.3924790700426 46.44340293316415 93.10486835009048 C46.259948380334365 93.28834068331462 45.98956547952489 93.3767448040254 45.64206189625947 93.3767448040254 C44.68440630046164 93.3767448040254 43.141089407309785 92.70536422550754 41.21730052368779 91.50218627628112 C39.416626646627655 90.37548535923516 37.2820334075859 88.78097515466929 34.980852097795264 86.83377304776654 C33.04749380593381 85.19656856028621 30.996493312891587 83.31221659133365 28.928004023966192 81.24365262475197 C22.339439780513718 74.65508482522065 17.598722578372747 68.24383023031042 16.88826424915131 65.23282712941611 C16.859908076241098 65.25670975510772 16.805855677415522 65.26611558371914 16.802104014207565 65.30319481809771 C16.802104014207565 65.30319481809771 18.42487793363301 76.12887326430423 31.920767996335766 88.57977221219882 C30.07729671007393 89.36512511850351 28.050276634892246 89.80022559257621 25.92324539756777 89.80022559257621 C17.456618110644527 89.80022559257621 10.568725373399648 82.91233552239048 10.568725373399648 74.44635721986106 C10.568725373399648 65.97973526705611 17.456618110644527 59.09190920629004 25.92324539756777 59.09190920629004 Z M25.92324539756777 51.52310826621458 C13.283635123253651 51.52310826621458 3.0000000000001705 61.80617174978968 3.0000000000001705 74.44635721986106 C3.0000000000001705 87.08532295487994 13.283635123253651 97.36896252323201 25.92324539756777 97.36896252323201 C30.479709707172614 97.36896252323201 34.7268591644981 96.02663520781843 38.2999752084686 93.7248209159889 C42.09821949354766 96.40471751328786 45.36426457100583 97.95949920471693 47.36912849678733 97.95949920471693 C48.03684631406899 97.95949920471693 48.56470354938946 97.78702226735916 48.92567755941484 97.4262011687252 C50.37049106786481 95.9807262296054 48.79556774571547 91.85997048356 45.22050652660301 86.7941796656268 C47.510994707231255 83.22736143733523 48.845840032702135 78.99089799701443 48.845840032702135 74.44635721986106 C48.845840032702135 61.80617174978968 38.562794329521374 51.52310826621458 25.92324539756777 51.52310826621458 Z "></path>
    </defs>
    <g style="mix-blend-mode:normal">
      <use xmlns:xlink="http://www.w3.org/1999/xlink" xlink:href="#mi-525acb06-Union_7-738e0" fill="#A9C2CB" fill-opacity="1.0"></use>
    </g>
  </g>
</svg>
