<?xml version="1.0" encoding="UTF-8"?>
<svg xmlns="http://www.w3.org/2000/svg" width="280.3059791229056" height="64.52584410362236" viewBox="356.99345895811337 30.80764732299326 280.3059791229056 64.52584410362236" preserveAspectRatio="none">
  <g>
    <defs>
      <path id="mi-525acb06-Union_8-738e0" d="M411.1139889487182 59.49356120251059 L411.1139889487182 66.95952389774155 C411.1139889487182 69.59456411617302 409.06452112566905 71.64403905137995 406.4294382342911 71.64403905137995 L398.9634648708236 71.64403905137995 L398.9634648708236 64.32447656715232 C398.9634648708236 62.71417026024546 399.6954196968148 61.25025705218416 401.0129611425037 60.37190912734738 C401.7449159684949 59.786343844122854 402.76969255296603 59.49356120251059 403.6479871366198 59.49356120251059 Z M390.17997851029804 59.49356120251059 C392.81506140167596 59.49356120251059 394.86455767335616 61.543039693796416 394.86455767335616 64.17808346830677 L394.86455767335616 71.64403905137995 L387.3985558612576 71.64403905137995 L387.3985558612576 71.7904357063044 C384.76352986714164 71.7904357063044 382.71403359546144 69.74096077109745 382.71403359546144 67.10591344050823 L382.71403359546144 59.49356120251059 Z M525.2056302937963 67.69292249175402 C526.3164355382928 67.69292249175402 527.1099816503142 68.01030964306852 527.7447275043123 68.64511239432852 C528.3795871528343 69.27991514558848 528.6969600798332 70.07339013603249 528.6969600798332 71.02558715076472 C528.6969600798332 72.13649907762742 528.3795871528343 72.92996695591368 527.7447275043123 73.56477681933141 C527.1099816503142 74.1995795705914 526.3164355382928 74.5169667219059 525.2056302937963 74.5169667219059 L525.2056302937963 74.35827314624864 L520.7620679322383 74.35827314624864 L520.7620679322383 67.69292249175402 Z M494.2592948804974 70.23208371168974 L497.2745368274049 79.75403963469653 L491.24402448495897 79.75403963469653 L494.2592948804974 70.23208371168974 Z M406.8112473104165 76.02886210216153 C409.2013590405906 76.02886210216153 411.2603571550117 78.16868277714232 411.2603571550117 80.72030449743889 L411.2603571550117 81.93484056257641 C410.097377121333 82.85777816036544 408.87530928114853 83.74516919376889 407.59577520642324 84.59081897339505 C407.5504849859336 84.62076826963909 407.50513786818203 84.65062510783247 407.45976230179957 84.68040371229071 C405.65148197203627 85.86740150265815 403.812647812621 86.91609627360953 401.96106866653537 87.82911241135093 C400.26740787091325 87.13160176529556 399.10988997437903 85.48202923550501 399.10988997437903 83.5017413707948 L399.10988997437903 76.03578223164273 L406.57583488921557 76.03578223164273 C406.6546375969771 76.03115221695387 406.733127369798 76.02886210216153 406.8112473104165 76.02886210216153 Z M411.2603571550117 85.44693784921482 L411.2603571550117 88.1862707487487 L407.13374099098843 88.1862707487487 C407.7587574131978 87.81148137231297 408.3792505030845 87.42214763329852 408.9944521476125 87.01831931680954 C409.0422458476267 86.98694758901748 409.0900110990099 86.9554834031748 409.13774790176217 86.92393387143922 C409.8609689980484 86.44595419835083 410.5686855904611 85.9532523587402 411.2603571550117 85.44693784921482 Z M492.35491507534846 63.72543018893124 L483.62650526436306 88.32377009434015 L488.54609856778853 88.32377009434015 L489.97439053380805 83.56281346930996 L498.54417077855584 83.56281346930996 L499.9724627445754 88.32377009434015 L504.8921129452627 88.32377009434015 L496.16370313427734 63.72543018893124 Z M459.1868553785326 63.7254586375622 L459.1868553785326 67.85161606741127 L465.53476909660856 67.85161606741127 L465.53476909660856 88.48247078215513 L470.2957612824274 88.48247078215513 L470.2957612824274 67.85161606741127 L476.4850169856348 67.85161606741127 L476.4850169856348 63.7254586375622 Z M546.1538365990659 63.88414865714059 L546.1538365990659 88.48247078215513 L561.547618401019 88.48247078215513 L561.547618401019 84.3563097962272 L550.7560854241233 84.3563097962272 L550.7560854241233 63.88414865714059 Z M573.7674433439342 63.88414865714059 L573.7674433439342 88.48247078215513 L578.3697490662537 88.48247078215513 L578.3697490662537 63.88414865714059 Z M591.7004361509273 63.88414865714059 L591.7004361509273 88.48247078215513 L596.6201148002458 88.48247078215513 L596.6201148002458 73.08868898020191 L605.6659259868613 88.48247078215513 L609.9508018849197 88.48247078215513 L609.9508018849197 63.88414865714059 L605.3485530598621 63.88414865714059 L605.3485530598621 79.27793045909381 L596.3027418732468 63.88414865714059 Z M516.1597622099189 63.88414865714059 L516.1597622099189 88.48247078215513 L520.7620679322383 88.48247078215513 L520.7620679322383 78.64315615646481 L524.5708275425363 78.64315615646481 L529.1730763675939 88.64116435781239 L534.5688713046725 88.64116435781239 L529.1730763675939 77.84965982954756 C530.4426818701136 77.21484996612983 531.5534871146103 76.42135363921261 532.3470332266315 75.31047016098087 C533.1405224413911 74.1995795705914 533.4578953683899 72.77127338025643 533.4578953683899 71.18430917505293 C533.4578953683899 68.96250665780076 532.6644630508924 67.05811974049404 531.2361141876113 65.78853913052617 C529.8078222215918 64.51893007192734 527.9034708650738 63.88414865714059 525.5230032207953 63.88414865714059 Z M620.0013049225477 63.90499083539826 L620.0013049225477 68.03114826524734 L626.3492755378857 68.03114826524734 L626.3492755378857 88.66201009214893 L631.1102677237043 88.66201009214893 L631.1102677237043 68.03114826524734 L637.2994380810189 68.03114826524734 L637.2994380810189 63.90499083539826 Z M440.142943532519 63.40803948153786 C437.603817873372 63.40803948153786 435.6993527223301 64.20153936453397 434.11243119007304 65.47111997450183 C432.6841392240536 66.74073258917954 431.8905931120322 68.64511239432852 431.8905931120322 70.86688646294972 C431.8905931120322 74.67566029756314 434.11243119007304 76.89746281481533 438.55599355163093 77.69095914173256 L440.9364042986475 78.00834629304708 C442.047323337668 78.32574055651932 442.9995559131889 78.64315615646481 443.4756722009494 79.11923688343654 C443.95170314281694 79.59534605903929 444.2691329670779 80.38881393732555 444.2691329670779 81.34103940068874 C444.2691329670779 83.4041198936527 442.9995559131889 84.51500337188445 440.30165844464943 84.51500337188445 C438.87336647863 84.51500337188445 437.7625327855025 84.3563097962272 437.12764468834956 83.7215070449672 C436.49289883435154 83.24542631799545 436.01681099522204 82.29322930326322 435.8580676344606 80.86493022508601 L431.4145052729026 80.86493022508601 C431.5732201850331 83.4041198936527 432.3667662970546 85.30850681095941 433.63625800505065 86.89547101616292 C435.0646068683321 88.16508363084061 437.12764468834956 88.7998863821006 439.82557060552 88.7998863821006 C442.5234111767974 88.7998863821006 444.58650589407694 88.16508363084061 446.1735127722269 86.89547101616292 C447.7605196503768 85.62589396227392 448.5539804165053 83.7215070449672 448.5539804165053 81.1823173764005 C448.5539804165053 77.21484996612983 446.4909425964878 74.99307589750862 442.2060382497985 74.1995795705914 L439.66691259065146 73.72346328283092 C438.55599355163093 73.40607613151641 437.603817873372 73.08868898020191 437.12764468834956 72.61257980459918 C436.651613746482 72.13649907762742 436.33418392222103 71.34299563855244 436.33418392222103 70.54949931163522 C436.33418392222103 69.43861583340347 436.651613746482 68.64511239432852 437.28635960048007 68.16900321872578 C437.92119080037105 67.69292249175402 438.7146515664995 67.37550689180856 439.9842855176505 67.37550689180856 C441.09511921077797 67.37550689180856 442.047323337668 67.69292249175402 442.68212608892793 68.16900321872578 C443.3169572888189 68.64511239432852 443.7930451279484 69.43861583340347 443.7930451279484 70.70819288729245 L448.2366074895063 70.70819288729245 C448.0778925773758 68.48641881867124 447.2844318112473 66.58203901352228 445.85608294796594 65.31242639884458 C444.4277909819465 64.0428457888767 442.5234111767974 63.40803948153786 440.142943532519 63.40803948153786 Z M394.71813256980073 76.03578223164273 L394.71813256980073 83.5017413707948 C394.71813256980073 85.98928254985209 395.70538541003447 88.2208713961548 397.3144115285481 89.83101412343366 C395.4192490798304 90.53247912919261 393.5262771756967 91.09542063864552 391.6542719125812 91.52259105683787 C391.925302019745 91.17598004936885 392.08313502431565 90.7321671820644 392.08313502431565 90.23574568395564 C392.08313502431565 89.0646151175066 391.20475509476904 88.1862707487487 390.03363875263557 88.1862707487487 L382.56769383779897 88.1862707487487 L382.56769383779897 80.72030449743889 C382.56769383779897 78.08526427900742 384.6171047635862 76.03578223164273 387.2521876549642 76.03578223164273 Z M404.03662388417564 33.59944838821608 C412.65567715774756 33.59944838821608 420.0448961148828 36.761120772797284 423.98136162956393 42.757974828737694 L423.99111950998355 42.772640097998 C424.0225267985643 42.81921406295975 424.0537064980973 42.86589826636648 424.0846301599517 42.91269270821818 C430.4272524326689 52.50964633459545 426.59101144486283 67.44610216953785 414.9391918677116 78.71266327405985 C414.458779836676 76.86313242940335 413.3816008739751 75.26869334641488 411.99231198100296 73.98630729643578 C414.18820490760754 72.22961144676222 415.3593212497411 69.7409536589397 415.3593212497411 66.95952389774155 L415.3593212497411 57.44408271122477 C415.3593212497411 56.27295570085461 414.48096976882545 55.394604219938955 413.3098534266919 55.394604219938955 L403.7944122401751 55.394604219938955 C402.0377377269748 55.394604219938955 400.28100631651256 55.980169503163474 398.81712511316107 56.85851742800026 C398.0851133899079 57.297693168458075 397.49958366747205 57.88325489560373 396.9139970477744 58.61521327767382 C395.30374763812944 56.71212788523356 392.81506140167596 55.394604219938955 390.03363875263557 55.394604219938955 L380.51819756611883 55.394604219938955 C379.34705277535426 55.394604219938955 378.46870129443863 56.27295214477573 378.46870129443863 57.44408271122477 L378.46870129443863 66.95952389774155 C378.46870129443863 69.7409536589397 379.78624274012765 72.08322190399551 381.6893139082523 73.83991775366908 C379.78624274012765 75.45021694841822 378.46870129443863 77.93886762408299 378.46870129443863 80.72030449743889 L378.46870129443863 90.23574568395564 C378.46870129443863 91.4068762504047 379.34705277535426 92.28522773132033 380.51819756611883 92.28522773132033 L387.24006853817485 92.28522773132033 C385.7704407113693 92.45668051796352 384.32408386468967 92.54169213943221 382.91078432718655 92.54169213943221 C374.2917310536146 92.54169213943221 366.9025405451104 89.3800179768116 362.9660465817983 83.38316747695005 L362.95628870137875 83.36850220768974 C362.92488141279796 83.3219389109646 362.8937301618958 83.27526181971562 362.8628065000414 83.22847804610053 C355.3337625217337 71.83638024530613 362.1476932635791 52.92040544880228 379.351633004939 41.55031977621381 C379.39695167405955 41.52035625565432 379.44232724044207 41.49047808098771 379.4877028068246 41.46068525221398 C387.59115309286244 36.14140646418315 396.3082972459873 33.59944838821608 404.03662388417564 33.59944838821608 Z M404.16640653861896 30.80764732299326 C395.70538541003447 30.80764732299326 386.33796245040685 33.61872233569205 377.95304140964254 39.1227660916163 C377.9052192609974 39.1541555998027 377.85742556098324 39.18563756603973 377.8096603096 39.21720487816964 C360.1132178690462 50.91280689836967 351.70451377279863 71.4172110045715 360.52967737768176 84.77043651712401 C360.56390108072765 84.8222272497882 360.59838082145217 84.87388996361307 360.6331450484863 84.92543888291411 C365.2268308356246 91.91688908195499 373.4530938615203 95.33349142661562 382.7810016727433 95.33349142661562 C388.3454969914198 95.33349142661562 394.30201444473664 94.11764672445389 400.11327318836743 91.71955515329519 C401.1942358189862 92.17843868285112 402.3882817576742 92.43161727408705 403.6479871366198 92.43161727408705 L413.1634283231365 92.43161727408705 C414.3345446652701 92.43161727408705 415.2129245948167 91.55327290532914 415.2129245948167 90.38213522672234 L415.2129245948167 82.2546102867339 C428.63692318904197 70.30826914540283 434.16096455449224 53.08688683718506 426.41775928231135 41.37073779327357 C426.38353557926547 41.3189932896347 426.349084287172 41.26737680483514 426.31437695739976 41.2158776706383 C421.7207196188925 34.224306564915814 413.4943996957347 30.80764732299326 404.16640653861896 30.80764732299326 Z "></path>
    </defs>
    <g style="mix-blend-mode:normal">
      <use xmlns:xlink="http://www.w3.org/1999/xlink" xlink:href="#mi-525acb06-Union_8-738e0" fill="#A9C2CB" fill-opacity="1.0"></use>
    </g>
  </g>
</svg>
